# xmcd CD database file
#
# Track frame offsets:
#	150
#	18075
#	34125
#	57525
#	72150
#	86291
#	107366
#	123041
#	138641
#	156692
#	176642
#	196667
#	210092
#	224467
#	234192
#	247542
#	266592
#	285942
#	293892
#	310842
#
# Disc length: 4360 seconds
#
# Revision: 0
# Processed by: cddbd v1.5.1PL2 Copyright (c) Steve Scherf et al.
# Submitted via: Feurio! 1.68 - http://www.feurio.com
#
DISCID=0b110614
DTITLE=Muddy Waters/Ry Cooder - Folk Singer/Crossroads
DYEAR=1900
DGENRE=Blues
TTITLE0=Muddy Waters - My Home Is in the Delta
TTITLE1=Muddy Waters - Long Distance
TTITLE2=Muddy Waters - My Captain
TTITLE3=Muddy Waters - Good Morning School Girl
TTITLE4=Muddy Waters - You Gonna Need My Help
TTITLE5=Muddy Waters - Cold Weather Blues
TTITLE6=Muddy Waters - Big Leg Woman
TTITLE7=Muddy Waters - Country Boy
TTITLE8=Muddy Waters - Feel Like Going Home
TTITLE9=Ry Cooder and Sonny Terry - Crossroads
TTITLE10=Ry Cooder - Down in Mississippi
TTITLE11=Ry Cooder - Cotton Needs Pickin'
TTITLE12=Ry Cooder - Viola Lee Blues
TTITLE13=Van Dyke Parks and Alan Pasqua - See You in Hell, Blind Boy
TTITLE14=Ry Cooder - Nitty Gritty Mississippi
TTITLE15=Amy Madigan - He Made a Woman Out of Me
TTITLE16=Ry Cooder - Feelin' Bad Blues
TTITLE17=Ry Cooder - Somebody's Callin' My Name
TTITLE18=Joe Seneca - Willie Brown Blues
TTITLE19=Ry Cooder and Sonny Terry - Walkin' Away Blues
EXTD=
EXTT0=
EXTT1=
EXTT2=
EXTT3=
EXTT4=
EXTT5=
EXTT6=
EXTT7=
EXTT8=
EXTT9=
EXTT10=
EXTT11=
EXTT12=
EXTT13=
EXTT14=
EXTT15=
EXTT16=
EXTT17=
EXTT18=
EXTT19=
PLAYORDER=
